<svg xmlns="http://www.w3.org/2000/svg" width="33.154" height="33.672" viewBox="0 0 33.154 33.672"><g transform="translate(-151.106 -463.689)"><path d="M7.925.309C7.544.636,1.022,11.717.55,12.844A7.382,7.382,0,0,0,6.236,22.89a7.216,7.216,0,0,0,6.158-2.053A3.877,3.877,0,0,1,13.412,20a25.032,25.032,0,0,1,1.035,3.179c0,.109-.327.291-.709.418-.963.273-1.453.727-1.581,1.417-.091.49-.018.672.436,1.144a1.967,1.967,0,0,0,.89.545c.182,0,1.708-.454,3.415-1.017,3.851-1.272,4.378-1.726,3.633-3.161-.345-.69-1.163-.854-2.253-.454a2.976,2.976,0,0,1-.872.218,30.747,30.747,0,0,1-1.09-3.325,5.555,5.555,0,0,1,1.181.145,5.293,5.293,0,0,0,2.325-.018,7.139,7.139,0,0,0,6.031-7.666A7.351,7.351,0,0,0,22.077,5.45C20.351,4.578,9.2,0,8.779,0A1.685,1.685,0,0,0,7.925.309Zm7.376,5.5c5.85,2.471,6.431,2.816,7.158,4.215a4.259,4.259,0,0,1-3.8,6.158,6.189,6.189,0,0,1-2.816-.727c-2.634-1.126-2.743-1.09-4.178,1.326a13.216,13.216,0,0,1-1.562,2.162,4.335,4.335,0,0,1-6.467-1.054,3.171,3.171,0,0,1-.545-2.253V14.261L6.254,8.847c1.726-2.961,3.215-5.4,3.306-5.4S12.231,4.505,15.3,5.813Z" transform="matrix(0.946, 0.326, -0.326, 0.946, 159.801, 463.689)" fill="#dbdbdd"/></g></svg>