<svg xmlns="http://www.w3.org/2000/svg" width="44.728" height="49.281" viewBox="0 0 44.728 49.281"><g transform="translate(-23.651 0)"><g transform="translate(32.285 0)"><path d="M117.143,8.615a5.25,5.25,0,0,0,2.188-4.282A4.9,4.9,0,0,0,117.143.244a1.444,1.444,0,1,0-1.6,2.4,2,2,0,0,1,.9,1.687,2.348,2.348,0,0,1-.9,1.879,4.915,4.915,0,0,0,0,8.178,1.444,1.444,0,1,0,1.6-2.4,2.027,2.027,0,0,1,0-3.373Z" transform="translate(-113.353 -0.001)" fill="#161c22"/></g><g transform="translate(39.505 0)"><path d="M192.152,8.615a5.25,5.25,0,0,0,2.188-4.282A4.9,4.9,0,0,0,192.152.244a1.444,1.444,0,1,0-1.6,2.4,2,2,0,0,1,.9,1.687,2.348,2.348,0,0,1-.9,1.879,4.915,4.915,0,0,0,0,8.178,1.444,1.444,0,1,0,1.6-2.4,2.027,2.027,0,0,1,0-3.373Z" transform="translate(-188.362 -0.001)" fill="#161c22"/></g><g transform="translate(46.724 0)"><path d="M267.16,8.614a5.251,5.251,0,0,0,2.188-4.282A4.9,4.9,0,0,0,267.16.243a1.444,1.444,0,0,0-1.6,2.4,2,2,0,0,1,.9,1.687,2.348,2.348,0,0,1-.9,1.879,4.915,4.915,0,0,0,0,8.179,1.444,1.444,0,0,0,1.6-2.4,2.027,2.027,0,0,1,0-3.373Z" transform="translate(-263.37 0)" fill="#161c22"/></g><g transform="translate(26.539 17.418)"><g transform="translate(0)"><path d="M94.511,187.481a7.345,7.345,0,0,0-6.306-3.63H85.422v-1.444a1.443,1.443,0,0,0-1.444-1.444H55.1a1.443,1.443,0,0,0-1.444,1.444v9.159a21.634,21.634,0,0,0,1.108,6.852,12.47,12.47,0,0,0,4.069,5.745H80.244a12.88,12.88,0,0,0,2.658-2.925c5.289-.19,9.341-2.6,11.719-6.857A6.879,6.879,0,0,0,94.511,187.481ZM92.1,192.974a10.085,10.085,0,0,1-7.738,5.25,21.648,21.648,0,0,0,1.06-6.657V186.74h2.784a4.391,4.391,0,0,1,3.816,2.2A3.969,3.969,0,0,1,92.1,192.974Z" transform="translate(-53.655 -180.964)" fill="#161c22"/></g></g><g transform="translate(23.651 43.505)"><path d="M59.749,451.994H25.095a1.444,1.444,0,0,0-1.444,1.444,4.332,4.332,0,0,0,4.332,4.332H56.862a4.332,4.332,0,0,0,4.332-4.332A1.444,1.444,0,0,0,59.749,451.994Z" transform="translate(-23.651 -451.994)" fill="#161c22"/></g></g></svg>