<svg xmlns="http://www.w3.org/2000/svg" width="39.702" height="39.702" viewBox="0 0 39.702 39.702"><g transform="translate(-1.5 -1.5)"><path d="M17.17,13.5H33.686a3.67,3.67,0,0,1,3.67,3.67V33.686a3.67,3.67,0,0,1-3.67,3.67H17.17a3.67,3.67,0,0,1-3.67-3.67V17.17A3.67,3.67,0,0,1,17.17,13.5Z" transform="translate(2.346 2.346)" fill="none" stroke="#d0bb7e" stroke-linecap="round" stroke-linejoin="round" stroke-width="3"/><path d="M8.505,26.856H6.67A3.67,3.67,0,0,1,3,23.186V6.67A3.67,3.67,0,0,1,6.67,3H23.186a3.67,3.67,0,0,1,3.67,3.67V8.505" transform="translate(0 0)" fill="none" stroke="#d0bb7e" stroke-linecap="round" stroke-linejoin="round" stroke-width="3"/></g></svg>