<svg xmlns="http://www.w3.org/2000/svg" width="128" height="117" viewBox="0 0 128 117"><g transform="translate(-179 -361)"><text transform="translate(179 473)" fill="#dbdbdd" font-size="25" font-family="Maven Pro" font-weight="700"><tspan x="0" y="0">Scrumbers</tspan></text><g transform="translate(195.71 361)"><g transform="translate(19.542 0)"><path d="M285.229,317.519H232.551a4.248,4.248,0,0,0-4.248,4.248v79.442a4.248,4.248,0,0,0,4.248,4.248h52.678a4.248,4.248,0,0,0,4.248-4.248V321.767A4.248,4.248,0,0,0,285.229,317.519ZM263.57,343.771a2.435,2.435,0,0,0,.936-1.949,2.068,2.068,0,0,0-.936-1.749,1.5,1.5,0,0,1,1.661-2.492,5.087,5.087,0,0,1,2.27,4.241,5.446,5.446,0,0,1-2.27,4.441,2.1,2.1,0,0,0,0,3.5,1.5,1.5,0,1,1-1.661,2.492,5.1,5.1,0,0,1,0-8.482Zm-7.487,0a2.435,2.435,0,0,0,.936-1.949,2.069,2.069,0,0,0-.936-1.749,1.5,1.5,0,0,1,1.661-2.492,5.087,5.087,0,0,1,2.27,4.241,5.445,5.445,0,0,1-2.27,4.441,2.1,2.1,0,0,0,0,3.5,1.5,1.5,0,1,1-1.661,2.492,5.1,5.1,0,0,1,0-8.482Zm-7.488,0a2.435,2.435,0,0,0,.936-1.949,2.069,2.069,0,0,0-.936-1.749,1.5,1.5,0,0,1,1.661-2.492,5.087,5.087,0,0,1,2.27,4.241,5.445,5.445,0,0,1-2.27,4.441,2.1,2.1,0,0,0,0,3.5,1.5,1.5,0,1,1-1.661,2.492,5.1,5.1,0,0,1,0-8.482Zm23.293,39.782h-29.95a4.492,4.492,0,0,1-4.493-4.493,1.5,1.5,0,0,1,1.5-1.5h35.94a1.5,1.5,0,0,1,1.5,1.5A4.493,4.493,0,0,1,271.889,383.553Zm11.038-16.634c-2.466,4.417-6.669,6.914-12.154,7.111a13.354,13.354,0,0,1-2.756,3.033H245.811a12.929,12.929,0,0,1-4.22-5.958,22.437,22.437,0,0,1-1.15-7.106v-9.5a1.5,1.5,0,0,1,1.5-1.5h29.95a1.5,1.5,0,0,1,1.5,1.5V356h2.887a7.618,7.618,0,0,1,6.54,3.764A7.134,7.134,0,0,1,282.927,366.919Z" transform="translate(-228.303 -317.519)" fill="#d0bb7e"/><path d="M335.825,415.148h-2.887v5.006a22.461,22.461,0,0,1-1.1,6.9,10.459,10.459,0,0,0,8.025-5.445,4.116,4.116,0,0,0-.082-4.179A4.555,4.555,0,0,0,335.825,415.148Z" transform="translate(-287.855 -373.673)" fill="#d0bb7e"/></g><g transform="translate(0 14.288)"><path d="M182.679,355.738a2.939,2.939,0,0,0-.26,2.256l13.787,47.533V351.153l-11.736,3.188A2.939,2.939,0,0,0,182.679,355.738Z" transform="translate(-182.303 -351.153)" fill="#d0bb7e"/><path d="M399.1,355.738a2.935,2.935,0,0,0-1.791-1.4l-11.736-3.188v54.373l13.787-47.532a2.936,2.936,0,0,0-.26-2.256Z" transform="translate(-299.221 -351.153)" fill="#d0bb7e"/></g></g></g></svg>