<svg xmlns="http://www.w3.org/2000/svg" width="25" height="30" viewBox="0 0 25 30"><path d="M29.729,31.477h-.366c-.467,0-.862-.066-.912-.539v-.007c-1.049-9.9-7.2-10.085-7.2-12.415S27.409,16,28.45,6.1V6.093c.05-.473.445-.539.912-.539h.366a1.036,1.036,0,0,0,1.034-.968,1.015,1.015,0,0,0-1.006-1.07H6.8a1.036,1.036,0,0,0-1.034.968,1.015,1.015,0,0,0,1.006,1.07h.4c.467,0,.862.066.912.539V6.1c1.049,9.9,7.2,10.085,7.2,12.415s-6.156,2.519-7.2,12.415v.007c-.05.473-.445.539-.912.539H6.8a1.036,1.036,0,0,0-1.034.968,1.015,1.015,0,0,0,1.006,1.07H29.757a1.01,1.01,0,0,0,1.006-1.07A1.036,1.036,0,0,0,29.729,31.477Zm-18.123-2.49c2.062-5.811,5.718-5.1,5.718-7.4V17.54c0-1.413-2.643-2.4-4.3-4.689a.57.57,0,0,1,.467-.9h9.546a.567.567,0,0,1,.481.888c-1.623,2.3-4.317,3.291-4.317,4.7v4.049c0,2.272,3.513,1.653,5.732,7.4.2.517.05,1.165-.5,1.165H12.1C11.548,30.152,11.419,29.511,11.606,28.986Z" transform="translate(-5.764 -3.516)" fill="#d0bb7e"/></svg>